<svg xmlns="http://www.w3.org/2000/svg" xmlns:xlink="http://www.w3.org/1999/xlink" width="500" zoomAndPan="magnify" viewBox="0 0 375 374.999991" height="500" preserveAspectRatio="xMidYMid meet" version="1.0"><defs><g/><clipPath id="8dfd5651bb"><path d="M 128.761719 102.808594 L 246.511719 102.808594 L 246.511719 222.058594 L 128.761719 222.058594 Z M 128.761719 102.808594 " clip-rule="nonzero"/></clipPath></defs><path fill="#004aad" d="M 184.179688 181.640625 L 184.179688 185.183594 C 184.085938 186.394531 183.433594 186.953125 182.96875 187.230469 C 180.640625 189.75 177.84375 190.960938 175.144531 191.332031 C 172.160156 191.703125 169.273438 191.332031 166.757812 191.050781 C 164.242188 190.773438 162.003906 190.679688 160.328125 191.238281 C 158.746094 191.796875 157.441406 192.824219 156.230469 195.804688 C 155.203125 199.34375 155.761719 203.070312 157.53125 205.585938 C 159.304688 208.101562 162.285156 209.6875 167.316406 208.847656 C 172.160156 208.101562 178.777344 204.28125 186.324219 203.351562 C 187.253906 203.257812 188 203.257812 189.027344 203.445312 C 196.386719 204.46875 202.816406 208.101562 207.566406 208.847656 C 212.503906 209.6875 215.488281 208.101562 217.351562 205.585938 C 219.121094 203.070312 219.679688 199.34375 218.65625 195.710938 C 217.441406 192.730469 216.140625 191.703125 214.554688 191.144531 C 212.878906 190.585938 210.734375 190.679688 208.125 190.960938 C 205.609375 191.238281 202.722656 191.613281 199.742188 191.238281 C 197.039062 190.867188 194.242188 189.65625 191.914062 187.140625 C 191.449219 186.671875 190.703125 186.113281 190.796875 185.089844 L 190.796875 181.640625 C 188.558594 182.109375 186.324219 182.109375 184.179688 181.640625 Z M 184.179688 181.640625 " fill-opacity="1" fill-rule="nonzero"/><g clip-path="url(#8dfd5651bb)"><path fill="#38b6ff" d="M 142.53125 102.816406 C 134.984375 102.816406 128.835938 108.96875 128.835938 116.515625 L 128.835938 208.382812 C 128.835938 215.929688 134.984375 222.078125 142.53125 222.078125 L 232.445312 222.078125 C 239.992188 222.078125 246.140625 215.929688 246.140625 208.382812 L 246.140625 116.515625 C 246.140625 108.96875 239.992188 102.816406 232.445312 102.816406 Z M 142.53125 107.195312 L 232.445312 107.195312 C 237.660156 107.195312 241.761719 111.296875 241.761719 116.515625 L 241.761719 208.382812 C 241.761719 213.601562 237.660156 217.699219 232.445312 217.699219 L 142.53125 217.699219 C 137.3125 217.699219 133.214844 213.601562 133.214844 208.382812 L 133.214844 116.515625 C 133.214844 111.296875 137.3125 107.195312 142.53125 107.195312 Z M 142.53125 107.195312 " fill-opacity="1" fill-rule="nonzero"/></g><path fill="#38b6ff" d="M 187.347656 111.390625 C 184.738281 111.390625 182.039062 112.785156 180.546875 115.210938 C 176.632812 115.769531 172.90625 115.117188 168.992188 113.347656 C 167.128906 112.414062 165.453125 111.667969 163.496094 111.390625 C 161.539062 111.109375 159.394531 111.484375 157.066406 112.507812 C 157.066406 112.507812 157.066406 112.507812 156.972656 112.507812 C 151.664062 115.023438 149.332031 120.519531 150.171875 126.203125 C 150.359375 127.414062 150.636719 128.71875 151.105469 129.558594 C 151.382812 130.210938 151.757812 130.769531 152.128906 131.328125 C 148.308594 134.402344 146.257812 137.851562 146.257812 141.390625 C 146.257812 144.371094 147.75 147.074219 150.078125 149.21875 C 147.191406 152.570312 145.886719 155.925781 146.539062 159.09375 C 146.910156 160.863281 147.84375 162.449219 149.054688 163.753906 C 146.164062 169.714844 145.699219 174.46875 147.46875 178.101562 C 149.425781 182.015625 153.621094 183.691406 158 184.34375 C 165.453125 185.367188 174.210938 183.691406 179.800781 181.828125 L 179.800781 184.34375 C 178.21875 186.113281 176.539062 186.765625 174.582031 187.046875 C 172.441406 187.324219 169.925781 187.046875 167.222656 186.765625 C 164.519531 186.488281 161.726562 186.207031 158.929688 187.230469 C 156.601562 188.070312 154.550781 189.75 152.96875 192.542969 C 152.222656 193.941406 151.847656 194.78125 151.570312 196.269531 C 150.730469 200.554688 151.476562 204.84375 153.898438 208.195312 C 156.414062 211.738281 160.980469 213.972656 166.664062 213.414062 C 167.503906 213.320312 167.96875 213.226562 168.808594 213.042969 C 174.863281 211.832031 181.105469 208.289062 187.347656 207.636719 C 193.21875 208.289062 199.273438 211.550781 205.144531 212.855469 C 206.261719 213.132812 207.566406 213.320312 209.058594 213.414062 C 214.277344 213.601562 218.46875 211.457031 220.890625 208.101562 C 223.035156 205.214844 223.777344 201.488281 223.40625 197.855469 C 222.941406 195.152344 222.476562 193.847656 221.355469 191.613281 C 219.867188 189.28125 218.003906 187.792969 215.859375 187.046875 C 213.0625 186.113281 210.269531 186.300781 207.566406 186.582031 C 204.863281 186.859375 202.347656 187.140625 200.207031 186.859375 C 198.25 186.582031 196.574219 185.929688 194.988281 184.15625 L 194.988281 181.640625 C 200.484375 183.503906 209.335938 185.183594 216.792969 184.15625 C 221.171875 183.503906 225.363281 181.828125 227.320312 177.914062 C 229.089844 174.375 228.625 169.621094 225.734375 163.566406 C 227.039062 162.261719 227.972656 160.679688 228.25 158.90625 C 228.902344 155.738281 227.597656 152.386719 224.710938 149.03125 C 227.039062 146.886719 228.53125 144.28125 228.53125 141.203125 C 228.53125 137.757812 226.574219 134.308594 222.660156 131.140625 C 222.941406 130.675781 223.3125 130.210938 223.59375 129.652344 C 224.152344 128.441406 224.429688 127.507812 224.710938 125.832031 C 225.457031 120.242188 223.035156 114.929688 217.816406 112.414062 C 217.816406 112.414062 217.816406 112.414062 217.722656 112.414062 C 215.394531 111.390625 213.25 111.015625 211.292969 111.296875 C 209.335938 111.574219 207.566406 112.320312 205.796875 113.253906 C 201.976562 114.929688 198.25 115.582031 194.335938 115.117188 C 192.753906 112.695312 189.957031 111.390625 187.347656 111.390625 Z M 187.347656 115.769531 C 188.746094 115.769531 189.957031 116.421875 190.703125 117.910156 L 190.703125 134.867188 C 188.464844 135.519531 186.324219 135.519531 184.085938 134.867188 L 184.085938 117.816406 C 184.832031 116.421875 186.042969 115.769531 187.347656 115.769531 Z M 162.097656 115.769531 C 162.378906 115.769531 162.65625 115.769531 162.9375 115.769531 C 164.054688 115.953125 165.359375 116.421875 167.128906 117.257812 C 167.128906 117.257812 167.222656 117.257812 167.222656 117.257812 C 171.230469 119.03125 175.421875 119.960938 179.800781 119.683594 L 179.800781 134.21875 C 174.117188 135.148438 168.898438 135.519531 164.707031 134.683594 C 160.234375 133.75 157.066406 131.699219 154.925781 127.136719 C 153.433594 122.289062 154.832031 118.378906 158.929688 116.515625 C 160.234375 116.046875 161.167969 115.863281 162.097656 115.769531 Z M 212.785156 115.769531 C 213.714844 115.769531 214.742188 116.046875 216.046875 116.605469 C 220.144531 118.5625 221.542969 122.476562 220.050781 127.320312 C 217.910156 131.886719 214.742188 133.9375 210.269531 134.867188 C 206.078125 135.707031 200.859375 135.335938 195.175781 134.402344 L 195.175781 119.867188 C 199.460938 120.148438 203.746094 119.308594 207.753906 117.445312 C 207.753906 117.445312 207.847656 117.445312 207.847656 117.445312 C 209.617188 116.605469 210.828125 116.046875 212.039062 115.953125 C 212.132812 115.769531 212.410156 115.769531 212.785156 115.769531 Z M 219.867188 134.777344 C 223.035156 137.292969 224.246094 139.621094 224.246094 141.390625 C 224.246094 143.441406 222.941406 145.492188 220.144531 147.261719 C 214.835938 150.617188 204.773438 152.011719 195.175781 148.378906 L 195.175781 138.78125 C 200.859375 139.714844 206.261719 140.085938 211.199219 139.15625 C 214.367188 138.410156 217.351562 137.011719 219.867188 134.777344 Z M 155.015625 134.777344 C 157.53125 137.011719 160.515625 138.410156 163.777344 139.0625 C 168.621094 140.085938 174.117188 139.621094 179.800781 138.6875 L 179.800781 148.285156 C 170.203125 151.917969 160.140625 150.617188 154.832031 147.167969 C 152.035156 145.398438 150.730469 143.347656 150.730469 141.296875 C 150.636719 139.621094 151.847656 137.292969 155.015625 134.777344 Z M 184.179688 139.433594 C 186.324219 139.898438 188.558594 139.898438 190.796875 139.433594 L 190.796875 148.75 C 188.558594 149.402344 186.417969 149.402344 184.179688 148.75 Z M 153.804688 151.734375 C 160.328125 155.273438 170.113281 156.300781 179.800781 153.039062 L 179.800781 164.03125 C 171.507812 166.269531 161.632812 165.710938 155.949219 163.101562 C 152.875 161.703125 151.289062 159.933594 150.917969 158.253906 C 150.546875 156.671875 151.195312 154.527344 153.804688 151.734375 Z M 221.078125 151.734375 C 223.6875 154.527344 224.339844 156.671875 224.058594 158.164062 C 223.6875 159.933594 222.101562 161.703125 219.027344 163.007812 C 213.34375 165.617188 203.46875 166.175781 195.175781 163.9375 L 195.175781 152.945312 C 204.773438 156.300781 214.460938 155.273438 221.078125 151.734375 Z M 184.179688 153.222656 C 186.324219 153.691406 188.558594 153.691406 190.796875 153.222656 L 190.796875 163.9375 C 188.558594 164.589844 186.417969 164.5 184.179688 163.9375 Z M 152.6875 166.363281 C 153.152344 166.640625 153.621094 166.921875 154.085938 167.105469 C 160.886719 170.183594 170.761719 170.832031 179.707031 168.597656 L 179.707031 177.078125 C 175.328125 178.753906 165.359375 180.898438 158.558594 179.964844 C 154.925781 179.40625 152.410156 178.195312 151.382812 176.144531 C 150.546875 174.28125 150.453125 171.207031 152.6875 166.363281 Z M 222.195312 166.363281 C 224.429688 171.300781 224.429688 174.28125 223.5 176.144531 C 222.476562 178.195312 219.960938 179.40625 216.324219 179.964844 C 209.429688 180.898438 199.554688 178.753906 195.175781 177.167969 L 195.175781 168.691406 C 204.210938 170.925781 213.996094 170.273438 220.796875 167.199219 C 221.261719 166.828125 221.730469 166.546875 222.195312 166.363281 Z M 184.179688 168.503906 C 186.324219 168.96875 188.558594 168.96875 190.796875 168.503906 L 190.796875 177.078125 C 188.558594 177.730469 186.417969 177.730469 184.179688 177.078125 Z M 184.179688 181.640625 C 186.324219 182.109375 188.558594 182.109375 190.796875 181.640625 L 190.796875 185.089844 C 190.703125 186.113281 191.449219 186.671875 191.914062 187.140625 C 194.242188 189.65625 197.039062 190.960938 199.742188 191.238281 C 202.722656 191.613281 205.609375 191.238281 208.125 190.960938 C 210.640625 190.679688 212.878906 190.585938 214.554688 191.144531 C 216.140625 191.703125 217.441406 192.730469 218.65625 195.710938 C 219.679688 199.25 219.121094 203.070312 217.351562 205.585938 C 215.578125 208.101562 212.597656 209.6875 207.566406 208.847656 C 202.816406 208.101562 196.292969 204.46875 189.027344 203.445312 C 188 203.257812 187.253906 203.257812 186.324219 203.351562 C 178.777344 204.28125 172.160156 208.101562 167.316406 208.847656 C 162.378906 209.6875 159.394531 208.101562 157.53125 205.585938 C 155.761719 203.070312 155.203125 199.34375 156.230469 195.804688 C 157.441406 192.824219 158.746094 191.796875 160.328125 191.238281 C 162.003906 190.679688 164.148438 190.773438 166.757812 191.050781 C 169.273438 191.332031 172.160156 191.703125 175.144531 191.332031 C 177.84375 190.960938 180.640625 189.75 182.96875 187.230469 C 183.34375 186.953125 184.085938 186.394531 184.179688 185.183594 Z M 184.179688 181.640625 " fill-opacity="1" fill-rule="nonzero"/><path fill="#38b6ff" d="M 166.011719 192.355469 C 161.910156 192.355469 158.652344 195.710938 158.652344 199.8125 C 158.652344 203.910156 162.003906 207.171875 166.011719 207.171875 C 170.019531 207.171875 173.464844 203.816406 173.464844 199.8125 C 173.464844 195.710938 170.113281 192.355469 166.011719 192.355469 Z M 166.011719 196.734375 C 167.6875 196.734375 168.992188 198.039062 168.992188 199.71875 C 168.992188 201.394531 167.6875 202.699219 166.011719 202.699219 C 164.335938 202.699219 163.03125 201.394531 163.03125 199.71875 C 163.03125 198.039062 164.335938 196.734375 166.011719 196.734375 Z M 166.011719 196.734375 " fill-opacity="1" fill-rule="nonzero"/><path fill="#38b6ff" d="M 210.082031 192.355469 C 205.984375 192.355469 202.722656 195.710938 202.722656 199.8125 C 202.722656 203.910156 206.078125 207.171875 210.082031 207.171875 C 214.183594 207.171875 217.441406 203.816406 217.441406 199.8125 C 217.441406 195.710938 214.089844 192.355469 210.082031 192.355469 Z M 210.082031 196.734375 C 211.761719 196.734375 213.0625 198.039062 213.0625 199.71875 C 213.0625 201.394531 211.761719 202.699219 210.082031 202.699219 C 208.40625 202.699219 207.101562 201.394531 207.101562 199.71875 C 207.101562 198.039062 208.40625 196.734375 210.082031 196.734375 Z M 210.082031 196.734375 " fill-opacity="1" fill-rule="nonzero"/><path fill="#fefffb" d="M 166.105469 196.734375 C 164.429688 196.734375 163.125 198.039062 163.125 199.71875 C 163.125 201.394531 164.429688 202.699219 166.105469 202.699219 C 167.78125 202.699219 169.085938 201.394531 169.085938 199.71875 C 169.085938 198.039062 167.78125 196.734375 166.105469 196.734375 Z M 166.105469 196.734375 " fill-opacity="1" fill-rule="nonzero"/><path fill="#fefffb" d="M 210.082031 196.734375 C 208.40625 196.734375 207.101562 198.039062 207.101562 199.71875 C 207.101562 201.394531 208.40625 202.699219 210.082031 202.699219 C 211.761719 202.699219 213.0625 201.394531 213.0625 199.71875 C 213.0625 198.039062 211.761719 196.734375 210.082031 196.734375 Z M 210.082031 196.734375 " fill-opacity="1" fill-rule="nonzero"/><path fill="#004aad" d="M 187.347656 115.769531 C 185.949219 115.769531 184.738281 116.421875 184.085938 117.816406 L 184.085938 134.867188 C 186.230469 135.519531 188.464844 135.519531 190.703125 134.867188 L 190.703125 117.910156 C 190.050781 116.421875 188.746094 115.769531 187.347656 115.769531 Z M 184.179688 139.433594 L 184.179688 148.75 C 186.324219 149.402344 188.558594 149.402344 190.796875 148.75 L 190.796875 139.433594 C 188.558594 139.808594 186.324219 139.808594 184.179688 139.433594 Z M 184.179688 153.222656 L 184.179688 163.9375 C 186.324219 164.589844 188.558594 164.589844 190.796875 163.9375 L 190.796875 153.222656 C 188.558594 153.691406 186.324219 153.691406 184.179688 153.222656 Z M 184.179688 168.503906 L 184.179688 177.078125 C 186.324219 177.730469 188.558594 177.730469 190.796875 177.078125 L 190.796875 168.503906 C 188.558594 168.96875 186.324219 168.96875 184.179688 168.503906 Z M 184.179688 168.503906 " fill-opacity="1" fill-rule="nonzero"/><path fill="#85d7e1" d="M 162.097656 115.769531 C 161.167969 115.769531 160.234375 116.046875 158.835938 116.605469 C 154.738281 118.5625 153.339844 122.476562 154.832031 127.230469 C 156.972656 131.792969 160.140625 133.84375 164.613281 134.777344 C 168.808594 135.613281 174.023438 135.242188 179.707031 134.308594 L 179.707031 119.773438 C 175.421875 120.054688 171.136719 119.214844 167.128906 117.351562 C 167.128906 117.351562 167.035156 117.351562 167.035156 117.351562 C 165.265625 116.515625 164.054688 115.953125 162.84375 115.863281 C 162.65625 115.769531 162.378906 115.769531 162.097656 115.769531 Z M 155.015625 134.777344 C 151.847656 137.292969 150.636719 139.621094 150.636719 141.390625 C 150.636719 143.441406 151.941406 145.492188 154.738281 147.261719 C 160.046875 150.617188 170.113281 152.011719 179.707031 148.378906 L 179.707031 138.78125 C 174.023438 139.714844 168.527344 140.085938 163.683594 139.15625 C 160.515625 138.410156 157.441406 137.011719 155.015625 134.777344 Z M 153.804688 151.734375 C 151.195312 154.527344 150.546875 156.671875 150.824219 158.164062 C 151.195312 159.933594 152.78125 161.703125 155.855469 163.007812 C 161.539062 165.617188 171.414062 166.175781 179.707031 163.9375 L 179.707031 152.945312 C 170.113281 156.300781 160.421875 155.273438 153.804688 151.734375 Z M 152.6875 166.363281 C 150.453125 171.300781 150.453125 174.28125 151.382812 176.144531 C 152.410156 178.195312 154.925781 179.5 158.558594 179.964844 C 165.453125 180.898438 175.328125 178.753906 179.707031 177.078125 L 179.707031 168.597656 C 170.671875 170.832031 160.886719 170.183594 154.085938 167.105469 C 153.621094 166.828125 153.152344 166.546875 152.6875 166.363281 Z M 152.6875 166.363281 " fill-opacity="1" fill-rule="nonzero"/><path fill="#85d7e1" d="M 212.785156 115.769531 C 212.503906 115.769531 212.226562 115.769531 211.945312 115.769531 C 210.828125 115.953125 209.523438 116.421875 207.753906 117.257812 C 207.753906 117.257812 207.660156 117.257812 207.660156 117.257812 C 203.652344 119.03125 199.460938 119.960938 195.082031 119.683594 L 195.082031 134.21875 C 200.765625 135.148438 205.984375 135.519531 210.175781 134.683594 C 214.648438 133.75 217.816406 131.699219 219.960938 127.136719 C 221.449219 122.289062 220.050781 118.378906 215.953125 116.421875 C 214.648438 116.046875 213.625 115.863281 212.785156 115.769531 Z M 219.867188 134.777344 C 217.351562 137.011719 214.367188 138.410156 211.109375 139.0625 C 206.261719 140.085938 200.765625 139.621094 195.082031 138.6875 L 195.082031 148.285156 C 204.679688 151.917969 214.835938 150.617188 220.050781 147.167969 C 222.847656 145.398438 224.152344 143.347656 224.152344 141.296875 C 224.152344 139.621094 223.035156 137.292969 219.867188 134.777344 Z M 221.078125 151.734375 C 214.554688 155.273438 204.773438 156.300781 195.082031 153.039062 L 195.082031 164.03125 C 203.375 166.269531 213.25 165.710938 218.933594 163.101562 C 222.007812 161.703125 223.59375 159.933594 223.964844 158.253906 C 224.339844 156.671875 223.59375 154.527344 221.078125 151.734375 Z M 222.101562 166.363281 C 221.636719 166.640625 221.171875 166.921875 220.703125 167.105469 C 213.902344 170.183594 204.027344 170.832031 195.082031 168.597656 L 195.082031 177.078125 C 199.460938 178.753906 209.335938 180.898438 216.230469 179.871094 C 219.867188 179.3125 222.382812 178.101562 223.40625 176.050781 C 224.339844 174.28125 224.429688 171.207031 222.101562 166.363281 Z M 222.101562 166.363281 " fill-opacity="1" fill-rule="nonzero"/><path fill="#004aad" d="M 219.867188 134.777344 C 217.351562 137.011719 214.367188 138.410156 211.109375 139.0625 C 206.261719 140.085938 200.765625 139.621094 195.082031 138.6875 L 195.082031 142.695312 C 200.765625 143.628906 206.167969 144 211.109375 143.066406 C 214.367188 142.417969 217.351562 141.019531 219.867188 138.78125 C 222.007812 140.460938 223.125 142.042969 223.6875 143.441406 C 223.964844 142.789062 224.152344 142.136719 224.152344 141.484375 C 224.152344 139.621094 223.035156 137.292969 219.867188 134.777344 Z M 221.078125 151.734375 C 214.554688 155.273438 204.773438 156.300781 195.082031 153.039062 L 195.082031 157.042969 C 204.773438 160.304688 214.460938 159.28125 221.078125 155.738281 C 222.289062 157.136719 223.125 158.253906 223.59375 159.375 C 223.777344 159 223.964844 158.628906 224.058594 158.253906 C 224.339844 156.671875 223.59375 154.527344 221.078125 151.734375 Z M 222.101562 166.363281 C 221.636719 166.640625 221.171875 166.921875 220.703125 167.105469 C 213.902344 170.183594 204.027344 170.832031 195.082031 168.597656 L 195.082031 172.605469 C 204.121094 174.839844 213.902344 174.1875 220.703125 171.113281 C 221.171875 170.925781 221.636719 170.648438 222.101562 170.367188 C 222.941406 172.230469 223.40625 173.816406 223.6875 175.214844 C 224.246094 173.347656 224.058594 170.554688 222.101562 166.363281 Z M 222.101562 166.363281 " fill-opacity="1" fill-rule="nonzero"/><path fill="#004aad" d="M 155.015625 134.777344 C 151.847656 137.292969 150.636719 139.621094 150.636719 141.390625 C 150.636719 142.042969 150.824219 142.695312 151.105469 143.441406 C 151.664062 142.042969 152.875 140.460938 154.925781 138.78125 C 157.441406 141.019531 160.421875 142.417969 163.683594 143.066406 C 168.527344 144.09375 174.023438 143.628906 179.707031 142.695312 L 179.707031 138.6875 C 174.023438 139.621094 168.527344 139.992188 163.683594 139.0625 C 160.515625 138.410156 157.441406 137.011719 155.015625 134.777344 Z M 153.804688 151.734375 C 151.195312 154.527344 150.546875 156.671875 150.824219 158.164062 C 150.917969 158.535156 151.105469 158.90625 151.289062 159.28125 C 151.757812 158.253906 152.5 157.042969 153.804688 155.648438 C 160.328125 159.1875 170.113281 160.210938 179.800781 156.949219 L 179.800781 152.945312 C 170.113281 156.300781 160.421875 155.273438 153.804688 151.734375 Z M 152.6875 166.363281 C 150.730469 170.554688 150.546875 173.347656 151.105469 175.214844 C 151.382812 173.816406 151.847656 172.230469 152.6875 170.367188 C 153.152344 170.648438 153.621094 170.925781 154.085938 171.113281 C 160.886719 174.1875 170.761719 174.839844 179.707031 172.605469 L 179.707031 168.597656 C 170.671875 170.832031 160.886719 170.183594 154.085938 167.105469 C 153.621094 166.828125 153.152344 166.546875 152.6875 166.363281 Z M 152.6875 166.363281 " fill-opacity="1" fill-rule="nonzero"/><path fill="#fefffb" d="M 212.785156 115.769531 C 212.503906 115.769531 212.226562 115.769531 211.945312 115.769531 C 211.574219 115.863281 211.109375 115.953125 210.640625 116.140625 C 211.015625 116.234375 211.386719 116.421875 211.851562 116.605469 C 215.953125 118.5625 217.351562 122.476562 215.859375 127.320312 C 213.714844 131.886719 210.546875 133.9375 206.078125 134.867188 C 205.050781 135.054688 204.027344 135.242188 202.910156 135.242188 C 205.609375 135.335938 208.125 135.335938 210.269531 134.867188 C 214.742188 133.9375 217.910156 131.886719 220.050781 127.320312 C 221.542969 122.476562 220.144531 118.5625 216.046875 116.605469 C 214.648438 116.046875 213.625 115.863281 212.785156 115.769531 Z M 219.867188 134.777344 C 219.121094 135.429688 218.375 135.988281 217.535156 136.546875 C 219.308594 138.410156 219.960938 140.085938 219.960938 141.390625 C 219.960938 143.441406 218.65625 145.492188 215.859375 147.261719 C 213.25 148.9375 209.429688 150.148438 205.050781 150.429688 C 211.109375 150.800781 216.605469 149.496094 220.050781 147.261719 C 222.847656 145.492188 224.152344 143.441406 224.152344 141.390625 C 224.152344 139.621094 223.035156 137.292969 219.867188 134.777344 Z M 221.078125 151.734375 C 220.144531 152.292969 219.027344 152.664062 218.003906 153.132812 C 219.585938 155.273438 220.050781 156.949219 219.867188 158.253906 C 219.492188 160.027344 217.910156 161.796875 214.835938 163.101562 C 212.039062 164.40625 208.21875 165.148438 204.121094 165.335938 C 209.804688 165.617188 215.300781 164.777344 219.027344 163.101562 C 222.101562 161.703125 223.6875 159.933594 224.058594 158.253906 C 224.339844 156.671875 223.59375 154.527344 221.078125 151.734375 Z M 222.101562 166.363281 C 221.636719 166.640625 221.171875 166.921875 220.703125 167.105469 C 220.050781 167.386719 219.308594 167.664062 218.46875 167.945312 C 219.960938 171.859375 219.960938 174.46875 219.121094 176.050781 C 218.09375 178.101562 215.578125 179.3125 211.945312 179.871094 C 211.292969 179.964844 210.640625 179.964844 210.082031 180.058594 C 212.226562 180.152344 214.367188 180.152344 216.230469 179.871094 C 219.867188 179.3125 222.382812 178.101562 223.40625 176.050781 C 224.339844 174.28125 224.429688 171.207031 222.101562 166.363281 Z M 222.101562 166.363281 " fill-opacity="1" fill-rule="nonzero"/><g fill="#1c2120" fill-opacity="1"><g transform="translate(79.535703, 258.677298)"><g><path d="M 7.578125 -4.546875 L 16.640625 -4.546875 L 16.640625 0 L 2.140625 0 L 2.140625 -21.390625 L 7.578125 -21.390625 Z M 7.578125 -4.546875 "/></g></g></g><g fill="#1c2120" fill-opacity="1"><g transform="translate(96.640342, 258.677298)"><g><path d="M 21.390625 -21.390625 L 21.390625 -8.984375 C 21.390625 -6.148438 20.507812 -3.898438 18.75 -2.234375 C 17 -0.578125 14.628906 0.25 11.640625 0.25 C 8.628906 0.25 6.226562 -0.578125 4.4375 -2.234375 C 2.65625 -3.898438 1.765625 -6.148438 1.765625 -8.984375 L 1.765625 -21.390625 L 7.203125 -21.390625 L 7.203125 -8.984375 C 7.203125 -7.554688 7.613281 -6.421875 8.4375 -5.578125 C 9.269531 -4.734375 10.347656 -4.3125 11.671875 -4.3125 C 12.972656 -4.3125 14.015625 -4.726562 14.796875 -5.5625 C 15.578125 -6.394531 15.96875 -7.535156 15.96875 -8.984375 L 15.96875 -21.390625 Z M 21.390625 -21.390625 "/></g></g></g><g fill="#1c2120" fill-opacity="1"><g transform="translate(119.7927, 258.677298)"><g><path d="M 21.875 0 L 17.078125 0 L 7.234375 -13.171875 L 7.234375 0 L 2.140625 0 L 2.140625 -21.390625 L 6.9375 -21.390625 L 16.796875 -8.1875 L 16.796875 -21.390625 L 21.875 -21.390625 Z M 21.875 0 "/></g></g></g><g fill="#1c2120" fill-opacity="1"><g transform="translate(143.800285, 258.677298)"><g><path d="M 16.34375 -10.875 L 21.046875 -10.875 L 21.046875 -2.53125 C 19.890625 -1.71875 18.488281 -1.050781 16.84375 -0.53125 C 15.207031 -0.0078125 13.644531 0.25 12.15625 0.25 C 8.894531 0.25 6.175781 -0.789062 4 -2.875 C 1.820312 -4.96875 0.734375 -7.570312 0.734375 -10.6875 C 0.734375 -13.78125 1.851562 -16.363281 4.09375 -18.4375 C 6.332031 -20.519531 9.144531 -21.5625 12.53125 -21.5625 C 14.113281 -21.5625 15.6875 -21.273438 17.25 -20.703125 C 18.820312 -20.140625 20.160156 -19.367188 21.265625 -18.390625 L 18.203125 -14.6875 C 17.429688 -15.40625 16.535156 -15.972656 15.515625 -16.390625 C 14.492188 -16.804688 13.488281 -17.015625 12.5 -17.015625 C 10.738281 -17.015625 9.265625 -16.40625 8.078125 -15.1875 C 6.890625 -13.976562 6.296875 -12.476562 6.296875 -10.6875 C 6.296875 -8.875 6.894531 -7.359375 8.09375 -6.140625 C 9.289062 -4.921875 10.78125 -4.3125 12.5625 -4.3125 C 13.695312 -4.3125 14.957031 -4.65625 16.34375 -5.34375 Z M 16.34375 -10.875 "/></g></g></g><g fill="#1c2120" fill-opacity="1"><g transform="translate(166.494483, 258.677298)"><g><path d="M 7.578125 -4.546875 L 16.640625 -4.546875 L 16.640625 0 L 2.140625 0 L 2.140625 -21.390625 L 7.578125 -21.390625 Z M 7.578125 -4.546875 "/></g></g></g><g fill="#1c2120" fill-opacity="1"><g transform="translate(183.599123, 258.677298)"><g><path d="M 18.875 -17.109375 L 7.578125 -17.109375 L 7.578125 -12.859375 L 17.78125 -12.859375 L 17.78125 -8.578125 L 7.578125 -8.578125 L 7.578125 -4.28125 L 19.21875 -4.28125 L 19.21875 0 L 2.140625 0 L 2.140625 -21.390625 L 18.875 -21.390625 Z M 18.875 -17.109375 "/></g></g></g><g fill="#1c2120" fill-opacity="1"><g transform="translate(204.185781, 258.677298)"><g><path d="M 21.875 0 L 17.078125 0 L 7.234375 -13.171875 L 7.234375 0 L 2.140625 0 L 2.140625 -21.390625 L 6.9375 -21.390625 L 16.796875 -8.1875 L 16.796875 -21.390625 L 21.875 -21.390625 Z M 21.875 0 "/></g></g></g><g fill="#1c2120" fill-opacity="1"><g transform="translate(228.193366, 258.677298)"><g><path d="M 10.359375 -21.625 C 13.554688 -21.625 16.363281 -20.832031 18.78125 -19.25 L 16.734375 -15 C 15.617188 -15.644531 14.414062 -16.175781 13.125 -16.59375 C 11.84375 -17.019531 10.765625 -17.234375 9.890625 -17.234375 C 8.328125 -17.234375 7.546875 -16.710938 7.546875 -15.671875 C 7.546875 -14.992188 7.929688 -14.453125 8.703125 -14.046875 C 9.472656 -13.640625 10.414062 -13.289062 11.53125 -13 C 12.644531 -12.707031 13.753906 -12.347656 14.859375 -11.921875 C 15.972656 -11.503906 16.914062 -10.828125 17.6875 -9.890625 C 18.457031 -8.953125 18.84375 -7.773438 18.84375 -6.359375 C 18.84375 -4.296875 18.035156 -2.6875 16.421875 -1.53125 C 14.816406 -0.382812 12.773438 0.1875 10.296875 0.1875 C 8.523438 0.1875 6.769531 -0.117188 5.03125 -0.734375 C 3.300781 -1.347656 1.796875 -2.179688 0.515625 -3.234375 L 2.625 -7.421875 C 3.707031 -6.484375 4.976562 -5.710938 6.4375 -5.109375 C 7.90625 -4.515625 9.210938 -4.21875 10.359375 -4.21875 C 11.234375 -4.21875 11.914062 -4.375 12.40625 -4.6875 C 12.894531 -5 13.140625 -5.460938 13.140625 -6.078125 C 13.140625 -6.671875 12.859375 -7.164062 12.296875 -7.5625 C 11.734375 -7.957031 11.035156 -8.25 10.203125 -8.4375 C 9.367188 -8.632812 8.460938 -8.894531 7.484375 -9.21875 C 6.503906 -9.550781 5.597656 -9.910156 4.765625 -10.296875 C 3.929688 -10.679688 3.234375 -11.296875 2.671875 -12.140625 C 2.109375 -12.984375 1.828125 -14 1.828125 -15.1875 C 1.828125 -17.132812 2.601562 -18.691406 4.15625 -19.859375 C 5.71875 -21.035156 7.785156 -21.625 10.359375 -21.625 Z M 10.359375 -21.625 "/></g></g></g><g fill="#1c2120" fill-opacity="1"><g transform="translate(247.863715, 258.677298)"><g/></g></g><g fill="#1c2120" fill-opacity="1"><g transform="translate(254.94992, 258.677298)"><g><path d="M 18.484375 -17.015625 L 12.03125 -17.015625 L 12.03125 0 L 6.59375 0 L 6.59375 -17.015625 L 0.21875 -17.015625 L 0.21875 -21.40625 L 18.484375 -21.40625 Z M 18.484375 -17.015625 "/></g></g></g><g fill="#1c2120" fill-opacity="1"><g transform="translate(273.612319, 258.677298)"><g><path d="M 2.140625 -21.390625 L 12.25 -21.390625 C 14.65625 -21.390625 16.5625 -20.90625 17.96875 -19.9375 C 19.382812 -18.96875 20.09375 -17.664062 20.09375 -16.03125 C 20.09375 -14.914062 19.765625 -13.9375 19.109375 -13.09375 C 18.460938 -12.25 17.570312 -11.660156 16.4375 -11.328125 C 17.78125 -11.066406 18.847656 -10.445312 19.640625 -9.46875 C 20.429688 -8.488281 20.828125 -7.304688 20.828125 -5.921875 C 20.828125 -4.109375 20.085938 -2.664062 18.609375 -1.59375 C 17.140625 -0.53125 15.140625 0 12.609375 0 L 2.140625 0 Z M 7.546875 -17.234375 L 7.546875 -12.828125 L 11.9375 -12.828125 C 12.738281 -12.828125 13.375 -13.023438 13.84375 -13.421875 C 14.3125 -13.816406 14.546875 -14.363281 14.546875 -15.0625 C 14.546875 -15.726562 14.3125 -16.253906 13.84375 -16.640625 C 13.375 -17.035156 12.738281 -17.234375 11.9375 -17.234375 Z M 7.546875 -8.921875 L 7.546875 -4.1875 L 11.9375 -4.1875 C 12.957031 -4.1875 13.757812 -4.398438 14.34375 -4.828125 C 14.925781 -5.253906 15.21875 -5.84375 15.21875 -6.59375 C 15.21875 -7.3125 14.925781 -7.878906 14.34375 -8.296875 C 13.757812 -8.710938 12.957031 -8.921875 11.9375 -8.921875 Z M 7.546875 -8.921875 "/></g></g></g><g fill="#000000" fill-opacity="1"><g transform="translate(131.571288, 279.961153)"><g><path d="M 5.71875 0 L 3.375 -3.1875 L 1.0625 0 L 0.171875 0 L 2.921875 -3.71875 L 0.359375 -7.234375 L 1.234375 -7.234375 L 3.40625 -4.28125 L 5.578125 -7.234375 L 6.40625 -7.234375 L 3.84375 -3.75 L 6.609375 0 Z M 5.71875 0 "/></g></g></g><g fill="#000000" fill-opacity="1"><g transform="translate(139.818836, 279.961153)"><g/></g></g><g fill="#000000" fill-opacity="1"><g transform="translate(143.989426, 279.961153)"><g><path d="M 6.125 0 L 4.46875 -2.328125 C 4.28125 -2.304688 4.085938 -2.296875 3.890625 -2.296875 L 1.9375 -2.296875 L 1.9375 0 L 1.171875 0 L 1.171875 -7.234375 L 3.890625 -7.234375 C 4.816406 -7.234375 5.539062 -7.015625 6.0625 -6.578125 C 6.582031 -6.140625 6.84375 -5.535156 6.84375 -4.765625 C 6.84375 -4.191406 6.695312 -3.707031 6.40625 -3.3125 C 6.125 -2.925781 5.71875 -2.648438 5.1875 -2.484375 L 6.96875 0 Z M 3.875 -2.953125 C 4.582031 -2.953125 5.125 -3.109375 5.5 -3.421875 C 5.882812 -3.742188 6.078125 -4.191406 6.078125 -4.765625 C 6.078125 -5.347656 5.882812 -5.796875 5.5 -6.109375 C 5.125 -6.421875 4.582031 -6.578125 3.875 -6.578125 L 1.9375 -6.578125 L 1.9375 -2.953125 Z M 3.875 -2.953125 "/></g></g></g><g fill="#000000" fill-opacity="1"><g transform="translate(152.930268, 279.961153)"><g><path d="M 5.71875 -1.9375 L 1.6875 -1.9375 L 0.8125 0 L 0.015625 0 L 3.328125 -7.234375 L 4.078125 -7.234375 L 7.390625 0 L 6.59375 0 Z M 5.4375 -2.5625 L 3.703125 -6.4375 L 1.96875 -2.5625 Z M 5.4375 -2.5625 "/></g></g></g><g fill="#000000" fill-opacity="1"><g transform="translate(161.809014, 279.961153)"><g><path d="M 3.65625 -2.5 L 3.65625 0 L 2.90625 0 L 2.90625 -2.5 L 0.015625 -7.234375 L 0.828125 -7.234375 L 3.3125 -3.171875 L 5.796875 -7.234375 L 6.5625 -7.234375 Z M 3.65625 -2.5 "/></g></g></g><g fill="#000000" fill-opacity="1"><g transform="translate(169.839262, 279.961153)"><g/></g></g><g fill="#000000" fill-opacity="1"><g transform="translate(174.009852, 279.961153)"><g><path d="M 3.171875 0.0625 C 2.640625 0.0625 2.125 -0.0195312 1.625 -0.1875 C 1.132812 -0.363281 0.753906 -0.59375 0.484375 -0.875 L 0.78125 -1.46875 C 1.039062 -1.207031 1.390625 -0.992188 1.828125 -0.828125 C 2.265625 -0.671875 2.710938 -0.59375 3.171875 -0.59375 C 3.816406 -0.59375 4.300781 -0.707031 4.625 -0.9375 C 4.957031 -1.175781 5.125 -1.488281 5.125 -1.875 C 5.125 -2.164062 5.035156 -2.394531 4.859375 -2.5625 C 4.679688 -2.738281 4.460938 -2.875 4.203125 -2.96875 C 3.953125 -3.0625 3.597656 -3.160156 3.140625 -3.265625 C 2.597656 -3.398438 2.164062 -3.53125 1.84375 -3.65625 C 1.519531 -3.789062 1.238281 -3.988281 1 -4.25 C 0.769531 -4.507812 0.65625 -4.863281 0.65625 -5.3125 C 0.65625 -5.675781 0.75 -6.007812 0.9375 -6.3125 C 1.132812 -6.613281 1.429688 -6.851562 1.828125 -7.03125 C 2.234375 -7.207031 2.734375 -7.296875 3.328125 -7.296875 C 3.742188 -7.296875 4.148438 -7.238281 4.546875 -7.125 C 4.941406 -7.019531 5.285156 -6.863281 5.578125 -6.65625 L 5.3125 -6.046875 C 5.007812 -6.242188 4.6875 -6.394531 4.34375 -6.5 C 4 -6.601562 3.660156 -6.65625 3.328125 -6.65625 C 2.691406 -6.65625 2.210938 -6.53125 1.890625 -6.28125 C 1.578125 -6.039062 1.421875 -5.726562 1.421875 -5.34375 C 1.421875 -5.050781 1.503906 -4.816406 1.671875 -4.640625 C 1.847656 -4.460938 2.066406 -4.328125 2.328125 -4.234375 C 2.597656 -4.140625 2.957031 -4.039062 3.40625 -3.9375 C 3.9375 -3.800781 4.363281 -3.664062 4.6875 -3.53125 C 5.019531 -3.40625 5.300781 -3.210938 5.53125 -2.953125 C 5.757812 -2.703125 5.875 -2.351562 5.875 -1.90625 C 5.875 -1.539062 5.773438 -1.207031 5.578125 -0.90625 C 5.378906 -0.613281 5.078125 -0.378906 4.671875 -0.203125 C 4.265625 -0.0234375 3.765625 0.0625 3.171875 0.0625 Z M 3.171875 0.0625 "/></g></g></g><g fill="#000000" fill-opacity="1"><g transform="translate(181.833141, 279.961153)"><g><path d="M 3.890625 -7.234375 C 4.816406 -7.234375 5.539062 -7.015625 6.0625 -6.578125 C 6.582031 -6.140625 6.84375 -5.535156 6.84375 -4.765625 C 6.84375 -3.984375 6.582031 -3.375 6.0625 -2.9375 C 5.539062 -2.5 4.816406 -2.28125 3.890625 -2.28125 L 1.9375 -2.28125 L 1.9375 0 L 1.171875 0 L 1.171875 -7.234375 Z M 3.875 -2.953125 C 4.582031 -2.953125 5.125 -3.109375 5.5 -3.421875 C 5.882812 -3.742188 6.078125 -4.191406 6.078125 -4.765625 C 6.078125 -5.347656 5.882812 -5.796875 5.5 -6.109375 C 5.125 -6.421875 4.582031 -6.578125 3.875 -6.578125 L 1.9375 -6.578125 L 1.9375 -2.953125 Z M 3.875 -2.953125 "/></g></g></g><g fill="#000000" fill-opacity="1"><g transform="translate(190.722247, 279.961153)"><g><path d="M 6.296875 -0.65625 L 6.296875 0 L 1.171875 0 L 1.171875 -7.234375 L 6.140625 -7.234375 L 6.140625 -6.578125 L 1.9375 -6.578125 L 1.9375 -4 L 5.6875 -4 L 5.6875 -3.34375 L 1.9375 -3.34375 L 1.9375 -0.65625 Z M 6.296875 -0.65625 "/></g></g></g><g fill="#000000" fill-opacity="1"><g transform="translate(199.104312, 279.961153)"><g><path d="M 4.328125 0.0625 C 3.609375 0.0625 2.957031 -0.09375 2.375 -0.40625 C 1.800781 -0.726562 1.347656 -1.171875 1.015625 -1.734375 C 0.691406 -2.296875 0.53125 -2.925781 0.53125 -3.625 C 0.53125 -4.320312 0.691406 -4.945312 1.015625 -5.5 C 1.347656 -6.0625 1.804688 -6.5 2.390625 -6.8125 C 2.972656 -7.132812 3.617188 -7.296875 4.328125 -7.296875 C 4.867188 -7.296875 5.363281 -7.207031 5.8125 -7.03125 C 6.269531 -6.851562 6.660156 -6.59375 6.984375 -6.25 L 6.5 -5.765625 C 5.925781 -6.335938 5.210938 -6.625 4.359375 -6.625 C 3.785156 -6.625 3.265625 -6.488281 2.796875 -6.21875 C 2.328125 -5.957031 1.957031 -5.597656 1.6875 -5.140625 C 1.425781 -4.691406 1.296875 -4.1875 1.296875 -3.625 C 1.296875 -3.050781 1.425781 -2.535156 1.6875 -2.078125 C 1.957031 -1.628906 2.328125 -1.273438 2.796875 -1.015625 C 3.265625 -0.753906 3.785156 -0.625 4.359375 -0.625 C 5.222656 -0.625 5.9375 -0.910156 6.5 -1.484375 L 6.984375 -1 C 6.660156 -0.65625 6.269531 -0.390625 5.8125 -0.203125 C 5.351562 -0.0234375 4.859375 0.0625 4.328125 0.0625 Z M 4.328125 0.0625 "/></g></g></g><g fill="#000000" fill-opacity="1"><g transform="translate(208.003763, 279.961153)"><g><path d="M 1.171875 -7.234375 L 1.9375 -7.234375 L 1.9375 0 L 1.171875 0 Z M 1.171875 -7.234375 "/></g></g></g><g fill="#000000" fill-opacity="1"><g transform="translate(212.588266, 279.961153)"><g><path d="M 5.71875 -1.9375 L 1.6875 -1.9375 L 0.8125 0 L 0.015625 0 L 3.328125 -7.234375 L 4.078125 -7.234375 L 7.390625 0 L 6.59375 0 Z M 5.4375 -2.5625 L 3.703125 -6.4375 L 1.96875 -2.5625 Z M 5.4375 -2.5625 "/></g></g></g><g fill="#000000" fill-opacity="1"><g transform="translate(221.467015, 279.961153)"><g><path d="M 1.171875 -7.234375 L 1.9375 -7.234375 L 1.9375 -0.65625 L 6 -0.65625 L 6 0 L 1.171875 0 Z M 1.171875 -7.234375 "/></g></g></g><g fill="#000000" fill-opacity="1"><g transform="translate(229.021271, 279.961153)"><g><path d="M 1.171875 -7.234375 L 1.9375 -7.234375 L 1.9375 0 L 1.171875 0 Z M 1.171875 -7.234375 "/></g></g></g><g fill="#000000" fill-opacity="1"><g transform="translate(233.605774, 279.961153)"><g><path d="M 3.171875 0.0625 C 2.640625 0.0625 2.125 -0.0195312 1.625 -0.1875 C 1.132812 -0.363281 0.753906 -0.59375 0.484375 -0.875 L 0.78125 -1.46875 C 1.039062 -1.207031 1.390625 -0.992188 1.828125 -0.828125 C 2.265625 -0.671875 2.710938 -0.59375 3.171875 -0.59375 C 3.816406 -0.59375 4.300781 -0.707031 4.625 -0.9375 C 4.957031 -1.175781 5.125 -1.488281 5.125 -1.875 C 5.125 -2.164062 5.035156 -2.394531 4.859375 -2.5625 C 4.679688 -2.738281 4.460938 -2.875 4.203125 -2.96875 C 3.953125 -3.0625 3.597656 -3.160156 3.140625 -3.265625 C 2.597656 -3.398438 2.164062 -3.53125 1.84375 -3.65625 C 1.519531 -3.789062 1.238281 -3.988281 1 -4.25 C 0.769531 -4.507812 0.65625 -4.863281 0.65625 -5.3125 C 0.65625 -5.675781 0.75 -6.007812 0.9375 -6.3125 C 1.132812 -6.613281 1.429688 -6.851562 1.828125 -7.03125 C 2.234375 -7.207031 2.734375 -7.296875 3.328125 -7.296875 C 3.742188 -7.296875 4.148438 -7.238281 4.546875 -7.125 C 4.941406 -7.019531 5.285156 -6.863281 5.578125 -6.65625 L 5.3125 -6.046875 C 5.007812 -6.242188 4.6875 -6.394531 4.34375 -6.5 C 4 -6.601562 3.660156 -6.65625 3.328125 -6.65625 C 2.691406 -6.65625 2.210938 -6.53125 1.890625 -6.28125 C 1.578125 -6.039062 1.421875 -5.726562 1.421875 -5.34375 C 1.421875 -5.050781 1.503906 -4.816406 1.671875 -4.640625 C 1.847656 -4.460938 2.066406 -4.328125 2.328125 -4.234375 C 2.597656 -4.140625 2.957031 -4.039062 3.40625 -3.9375 C 3.9375 -3.800781 4.363281 -3.664062 4.6875 -3.53125 C 5.019531 -3.40625 5.300781 -3.210938 5.53125 -2.953125 C 5.757812 -2.703125 5.875 -2.351562 5.875 -1.90625 C 5.875 -1.539062 5.773438 -1.207031 5.578125 -0.90625 C 5.378906 -0.613281 5.078125 -0.378906 4.671875 -0.203125 C 4.265625 -0.0234375 3.765625 0.0625 3.171875 0.0625 Z M 3.171875 0.0625 "/></g></g></g><g fill="#000000" fill-opacity="1"><g transform="translate(241.429069, 279.961153)"><g><path d="M 2.59375 -6.578125 L 0.046875 -6.578125 L 0.046875 -7.234375 L 5.890625 -7.234375 L 5.890625 -6.578125 L 3.34375 -6.578125 L 3.34375 0 L 2.59375 0 Z M 2.59375 -6.578125 "/></g></g></g></svg>